<svg xmlns="http://www.w3.org/2000/svg" xmlns:ev="http://www.w3.org/2001/xml-events" xmlns:xlink="http://www.w3.org/1999/xlink" width="200mm" height="300mm" baseProfile="full" version="1.1" viewBox="0 0 200 300"><rect width="200" height="300" x="0" y="0" fill="#222"/><text style="font-size:12px;font-family:Arial;font-weight:700" x="10" y="20" fill="#FFF">Over 10km Runs</text><text style="font-size:4px;font-family:Arial" x="10" y="280" fill="#FFF">ATHLETE</text><text style="font-size:9px;font-family:Arial" x="10" y="290" fill="#FFF">yihong0618</text><text style="font-size:4px;font-family:Arial" x="120" y="280" fill="#FFF">STATISTICS</text><text style="font-size:3px;font-family:Arial" x="120" y="285" fill="#FFF">Number: 11</text><text style="font-size:3px;font-family:Arial" x="120" y="290" fill="#FFF">Weekly: 1.6</text><text style="font-size:3px;font-family:Arial" x="141" y="285" fill="#FFF">Total: 137.5 km</text><text style="font-size:3px;font-family:Arial" x="141" y="290" fill="#FFF">Avg: 12.5 km</text><text style="font-size:3px;font-family:Arial" x="167" y="285" fill="#FFF">Min: 10.1 km</text><text style="font-size:3px;font-family:Arial" x="167" y="290" fill="#FFF">Max: 20.7 km</text><polyline fill="none" stroke="#4dd2ff" stroke-linecap="round" stroke-linejoin="round" stroke-width=".5" points="67 55.985 66.941 55.947 66.764 55.901 66.746 55.977 66.657 55.954 66.616 55.878 66.539 55.818 66.462 55.787 66.273 55.643 66.208 55.764 66.131 55.719 66.072 55.658 66.001 55.522 65.954 55.461 65.753 55.317 65.611 55.241 65.552 55.195 65.351 55.066 65.239 54.975 65.097 54.914 65.032 54.869 64.979 54.816 64.925 54.778 64.849 54.747 64.742 54.633 64.73 54.557 64.447 54.398 64.376 54.39 64.311 54.398 64.234 54.368 64.127 54.352 64.175 54.413 64.121 54.474 64.051 54.481 63.867 54.459 63.72 54.39 63.495 54.337 63.471 54.261 63.448 54.246 63.377 54.261 63.306 54.261 63.241 54.223 63.105 54.185 62.969 54.117 62.916 54.049 62.75 54.026 62.555 53.905 62.396 53.844 62.325 53.798 62.254 53.586 62.106 53.624 62.047 53.57 62.005 53.654 61.905 53.988 61.87 54.049 61.728 54.512 61.633 54.724 61.615 54.793 61.55 54.929 61.521 55.013 61.432 55.157 61.373 55.301 61.349 55.362 61.302 55.438 61.273 55.514 61.16 55.681 60.9 56.106 60.723 56.372 60.427 56.751 60.356 56.805 60.309 56.865 60.197 56.972 59.742 57.328 59.476 57.51 59.423 57.556 59.074 57.753 58.855 57.852 58.802 57.89 58.642 57.936 58.489 58.012 58.341 58.057 58.104 58.133 57.939 58.163 57.785 58.216 57.33 58.285 57.176 58.323 57.106 58.308 56.869 58.353 56.361 58.292 56.284 58.308 56.059 58.33 55.994 58.308 55.77 58.292 55.38 58.224 55.149 58.216 55.078 58.186 54.848 58.133 54.777 58.11 54.7 58.11 54.469 58.065 54.298 58.057 53.979 57.989 53.902 57.989 53.736 57.951 53.583 57.943 53.506 57.92 53.175 57.89 52.956 57.837 52.708 57.814 52.637 57.791 52.407 57.753 52.259 57.715 52.176 57.731 52.105 57.7 52.011 57.693 51.81 57.64 51.703 57.647 51.703 57.617 51.62 57.64 51.142 57.518 50.651 57.435 50.562 57.435 50.113 57.343 49.493 57.268 49.333 57.237 48.766 57.161 48.683 57.139 48.606 57.139 48.47 57.108 48.405 57.078 48.174 57.063 47.69 57.002 47.288 56.926 47.04 56.911 46.726 56.85 46.307 56.805 45.911 56.736 45.592 56.66 45.373 56.645 45.048 56.607 44.882 56.569 44.539 56.539 44.457 56.508 44.137 56.463 43.925 56.387 43.753 56.357 43.275 56.273 43.056 56.212 42.973 56.22 42.813 56.22 41.761 56.129 41.62 56.129 41.466 56.099 41.176 56.083 41.023 56.083 40.798 56.114 40.656 56.152 40.343 56.197 40.106 56.258 39.368 56.554 38.836 56.812 38.522 56.941 38.457 56.987 38.079 57.176 37.76 57.313 37.683 57.359 36.495 57.966 36.282 58.095 35.845 58.323 35.774 58.353 35.626 58.437 35.549 58.459 35.041 58.71 34.562 58.998 34.054 59.272 33.687 59.439 33.622 59.484 33.185 59.666 32.919 59.841 32.352 60.152 31.914 60.35 31.654 60.509 31.424 60.608 30.809 60.813 30.413 60.904 30.188 60.942 29.792 60.964 28.238 60.942 27.7 60.942 27.174 60.957 26.843 60.949 26.689 60.964 26.476 61.018 26.228 61.093 25.998 61.2 25.738 61.359 25.483 61.572 25.318 61.686 25.265 61.754 25.211 61.807 25.135 61.921 25.111 61.982 25.07 62.042 24.904 62.179 24.792 62.293 24.644 62.376 24.408 62.596 24.224 62.748 24.029 62.9 23.882 62.984 23.687 63.204 23.556 63.272 23.503 63.325 23.456 63.386 23.367 63.621 23.332 63.689 23.296 63.864 23.261 63.94 23.19 63.97 23.137 64.031 23.125 64.122 23.101 64.206 22.906 64.433 22.912 64.509 22.9 64.585 22.871 64.653 22.859 64.729 22.782 64.874 22.77 64.957 22.682 65.177 22.581 65.291 22.516 65.344 22.321 65.496 22.244 65.534 22.061 65.693 22.014 65.754 21.901 65.868 21.878 65.944 21.801 66.08 21.777 66.149 21.712 66.194 21.63 66.217 21.565 66.247 21.494 66.3 21.387 66.407 21.316 66.43 21.239 66.414 21.163 66.376 21.098 66.232 21.021 66.111 20.802 65.792 20.713 65.671 20.595 65.579 20.442 65.397 20.246 65.147 20.211 65.071 19.939 64.76 19.868 64.722 19.815 64.653 19.561 64.448 19.431 64.373 19.307 64.289 19.23 64.251 19.165 64.206 19.082 64.183 19.023 64.137 18.816 64.046 18.751 64.016 18.71 63.932 18.526 63.773 18.491 63.705 18.42 63.659 18.373 63.606 18.243 63.409 18.19 63.348 18.077 63.128 17.894 62.688 17.864 62.536 17.894 62.384 17.882 62.316 17.817 62.179 17.77 62.118 17.693 62.088 17.652 62.035 17.646 61.959 17.61 61.898 17.599 61.739 17.522 61.693 17.474 61.625 17.38 61.405 17.333 61.238 17.303 61.169 17.297 61.086 17.22 61.063 17.072 61.147 17.019 61.2 16.889 61.39 16.824 61.541 16.747 61.777 16.529 62.004 16.487 62.073 16.481 62.164 16.458 62.232 16.381 62.369 16.275 62.475 16.103 62.908 16.009 63.029 15.944 63.188 15.873 63.318 15.89 63.393 15.843 63.469 15.784 63.507 15.678 63.629 15.577 63.826 15.518 63.894 15.282 64.115 15.199 64.092 15.021 63.97 14.956 63.948 14.809 63.993 14.726 63.978 14.43 63.894 14.224 63.796 14.147 63.788 13.857 63.682 13.816 63.621 13.81 63.538 13.81 63.462 13.857 63.318 13.893 63.249 13.898 63.021 13.952 62.961 13.993 62.9 14.058 62.756 14.224 62.483 14.312 62.361 14.342 62.293 14.229 62.179 14.017 62.149 13.952 62.126 13.774 61.951 13.697 61.928 13.562 61.868 13.496 61.822 13.349 61.769 13.278 61.716 13.136 61.655 13 61.579"><title>2020-07-17 10.1km</title></polyline><polyline fill="none" stroke="#4dd2ff" stroke-linecap="round" stroke-linejoin="round" stroke-width=".5" points="73 63.992 73.034 64.066 73.355 64.287 73.424 64.294 73.55 64.353 73.608 64.397 73.688 64.427 74.233 64.736 74.45 64.832 74.611 64.883 74.817 65.016 75.018 65.119 75.15 65.178 75.368 65.237 75.609 65.413 75.867 65.553 76.01 65.516 76.222 65.642 76.337 65.782 76.491 65.84 76.761 66.076 77.145 66.334 77.191 66.4 77.311 66.51 77.546 66.51 77.902 66.613 78.108 66.694 78.183 66.746 78.332 66.79 78.601 66.923 78.796 67.033 78.865 67.026 79.1 66.709 79.175 66.68 79.261 66.547 79.41 66.4 79.536 66.201 79.656 65.98 79.708 65.848 79.759 65.774 79.777 65.708 79.868 65.561 79.977 65.428 80.046 65.266 80.121 65.273 80.27 65.34 80.482 65.583 80.533 65.745 80.573 65.811 80.631 65.855 80.665 65.921 80.665 66.069 80.711 66.29 80.808 66.496 80.831 66.577 81.015 66.982 81.015 67.063 81.118 67.526 81.233 67.71 81.336 67.814 81.416 67.953 81.462 68.079 81.508 68.138 81.657 68.233 81.795 68.299 82.161 68.417 82.299 68.439 82.586 68.646 83.021 69.028 83.486 69.61 83.738 69.912 83.807 69.963 83.944 70.14 84.076 70.324 84.22 70.574 84.266 70.722 84.352 70.847 84.833 71.347 85.429 71.87 85.762 72.106 85.917 72.172 86.146 72.319 86.484 72.511 86.57 72.533 86.639 72.533 86.702 72.488 86.805 72.356 87.121 71.885 87.35 71.59 87.465 71.399 87.688 71.163 87.826 70.972 87.895 70.825 87.94 70.677 87.952 70.515 87.906 70.28 87.608 69.455 87.551 69.146 87.499 68.911 87.522 68.837 87.551 68.542 87.631 68.248 87.677 68.174 87.74 68.027 87.854 67.836 88.009 67.637 88.175 67.475 88.405 67.306 88.68 67.136 89.03 66.996 89.271 66.952 89.471 66.849 89.517 66.798 89.546 66.724 89.529 66.658 89.483 66.599 89.299 66.459 89.248 66.407 88.835 66.15 88.772 66.091 88.732 66.032 88.841 65.84 88.904 65.789 89.047 65.701 89.265 65.62 89.488 65.553 89.792 65.509 91.868 65.458 92.705 65.465 93.232 65.369 93.536 65.288 93.8 65.156 93.96 65.111 94.029 65.067 94.092 65.097 94.293 65.016 94.402 64.913 94.522 64.839 94.665 64.802 94.935 64.648 95.439 64.405 95.514 64.383 95.927 64.14 96.202 64.014 96.471 63.86 96.735 63.735 97.05 63.521 97.125 63.499 97.182 63.44 97.262 63.418 97.48 63.3 97.687 63.212 98.18 62.939 98.547 62.8 98.69 62.711 98.77 62.682 99.647 62.225 99.791 62.137 100.29 61.901 100.347 61.857 100.588 61.761 100.846 61.592 101.046 61.496 101.723 61.172 102.554 60.848 102.91 60.745 103.701 60.627 104.091 60.627 104.945 60.701 105.403 60.775 105.484 60.767 105.644 60.811 106.034 60.87 106.097 60.892 106.344 60.944 106.579 60.966 106.957 61.054 107.897 61.209 108.333 61.231 108.711 61.29 109.01 61.371 109.256 61.401 109.887 61.511 110.128 61.533 110.437 61.577 110.901 61.666 110.97 61.666 111.125 61.71 111.675 61.783 111.996 61.857 112.289 61.887 112.845 61.982 113.458 62.078 113.843 62.107 114.152 62.166 114.456 62.181 114.766 62.218 115.293 62.321 116.68 62.527 117.139 62.601 117.294 62.66 117.603 62.733 118.555 62.844 119.117 62.858 119.524 62.836 119.931 62.785 120.321 62.719 120.613 62.645 120.911 62.542 121.49 62.291 122.024 61.975 122.396 61.71 122.74 61.401 123.044 61.062 123.291 60.738 123.554 60.458 123.893 59.994 124.007 59.803 124.059 59.759 124.317 59.442 124.426 59.331 124.615 59.177 124.821 59.066 125.446 58.875 125.664 58.845 125.813 58.868 125.882 58.882 126.255 59.03 126.398 59.111 126.673 59.236 126.817 59.309 127 59.457 126.954 59.405 126.771 59.28 126.467 59.103 126.415 59.059 126.312 58.868 126.203 58.764 126.134 58.647 125.962 58.507 125.911 58.44 125.836 58.404 125.55 57.999 125.486 57.94 125.263 57.63 125.165 57.527 125.097 57.387 125.005 57.284 124.93 57.277 124.793 57.1 124.724 57.071 124.569 57.041 124.5 57.012 124.185 56.975 123.875 56.923 123.738 56.872 123.681 56.828 123.652 56.754 123.635 56.599 123.572 56.585 123.612 56.482 123.577 56.334 123.497 56.217 123.44 56.18 123.365 56.187 123.302 56.239 123.199 56.437 123.153 56.496 123.09 56.541 123.027 56.577 122.798 56.585 122.74 56.548 122.683 56.415 122.586 56.047 122.494 55.863 122.442 55.797 122.322 55.701 122.19 55.65 122.115 55.642 122.047 55.642 121.972 55.664 121.76 55.738 121.691 55.775 121.41 56.062 121.227 56.187 121.147 56.202 120.717 56.231 120.298 56.165 119.839 56.158 119.776 56.121 119.656 55.922 119.593 55.878 119.518 55.863 119.364 55.885 119.237 55.974 118.968 56.113 118.819 56.113 118.704 56.032 118.601 55.915 118.584 55.775 118.641 55.392 118.549 55.244 118.475 55.215 118.395 55.222 117.959 55.406 117.81 55.392 117.712 55.274 117.661 55.127 117.672 55.046 117.563 54.751 117.483 54.611 117.391 54.508 117.099 54.39 116.686 54.331 116.451 54.331 116.371 54.302 116.004 54.059 115.849 53.897 115.522 53.691 115.448 53.565 115.316 53.47 115.241 53.426 114.519 53.182 114.318 53.094 114.25 53.05 114.095 52.888 114.015 52.777 113.94 52.638 113.997 52.593 114.164 52.336 114.204 52.181 114.33 51.923 114.387 51.702 114.427 51.29 114.467 51.224 114.565 50.929 114.594 50.634 114.571 50.472 114.582 50.023 114.508 49.721 114.473 49.493 114.513 49.264 114.49 49.169 114.393 49.058 114.307 48.764 114.209 48.528 114.009 48.182 113.843 47.931 113.82 47.865 113.711 47.755 113.648 47.762 113.504 47.659 113.069 47.482 112.994 47.467 112.702 47.467 112.478 47.504 112.329 47.548 112.243 47.534 112.077 47.534"><title>2020-07-19 14.2km</title></polyline><polyline fill="none" stroke="#4dd2ff" stroke-linecap="round" stroke-linejoin="round" stroke-width=".5" points="157.149 55.049 157.329 54.788 157.34 54.619 157.472 54.095 157.568 53.988 157.64 53.865 157.712 53.403 157.963 53.003 158.011 52.818 158.155 52.526 158.299 52.034 158.586 51.249 158.706 50.772 158.934 50.157 158.958 50.018 159.03 49.88 159.173 49.403 159.365 48.957 159.377 48.803 159.305 48.634 159.173 48.541 158.766 48.264 158.61 48.187 158.059 47.787 157.844 47.526 157.772 47.403 157.604 46.941 157.568 46.772 157.568 46.172 157.616 45.987 157.58 45.356 157.281 44.171 157.173 44.048 156.981 43.602 156.837 43.341 156.706 43.033 156.61 42.725 156.49 42.633 156.298 42.371 156.166 42.263 155.903 41.879 155.567 41.032 155.376 40.771 155.232 40.494 155.208 40.355 155.088 40.048 155.004 39.709 154.992 39.524 154.861 38.924 154.897 38.771 154.885 38.124 154.98 37.17 154.969 36.878 155.1 36.401 155.16 35.893 155.364 35.047 155.579 34.8 155.723 34.723 155.879 34.77 156.035 34.77 156.154 34.693 156.442 34.6 156.801 34.585 157.293 34.647 157.424 34.616 157.748 34.631 158.047 34.723 158.311 34.847 159.006 34.847 159.293 34.831 159.581 34.739 159.76 34.723 160.18 34.616 160.539 34.585 160.707 34.523 161.018 34.523 161.198 34.462 161.533 34.431 162.336 34.431 162.695 34.354 162.863 34.354 162.995 34.293 163.151 34.277 163.306 34.308 163.438 34.277 163.582 34.262 163.75 34.185 163.917 34.139 164.181 33.954 164.421 33.692 164.66 33.492 164.78 33.339 165.319 33 165.463 33 165.607 33.292 165.894 33.631 166.026 33.739 166.11 33.893 166.709 34.862 167.008 35.231 167.415 35.893 167.643 36.124 168.314 36.555 168.47 36.616 168.721 36.816 169.009 36.955 169.452 37.263 169.716 37.401 169.979 37.586 170.255 37.74 170.47 37.909 170.602 37.97 171.285 38.401 172.124 39.001 172.699 39.309 172.974 39.432 173.262 39.632 174.076 40.094 174.484 40.371 174.879 40.925 174.987 41.017 175.382 41.586 175.526 41.725 176.292 42.617 176.856 43.556 177.023 44.033 177.167 44.818 177.347 45.418 177.419 45.879 177.431 46.387 177.538 46.849 177.538 47.033 177.371 47.356 177.011 47.864 175.813 49.803 175.478 50.264 174.915 51.111 174.783 51.188 174.747 51.341 174.615 51.634 174.496 51.772 174.256 52.203 173.98 52.557 173.501 53.372 173.393 53.48 173.142 53.865 172.83 54.449 172.231 55.449 172.028 55.88 171.728 56.326 171.381 56.819 170.53 58.173 170.47 58.326 170.207 58.711 169.931 59.326 169.632 59.742 169.26 60.465 169.081 60.726 169.021 60.865 168.901 60.988 168.578 61.557 168.194 62.126 167.871 62.726 167.583 63.126 167.344 63.326 167.248 63.48 167.044 63.926 166.888 64.188 166.445 64.849 166.122 65.419 165.906 65.711 165.559 66.249 165.283 66.803 165.103 67.034 164.984 67.357 164.421 68.203 164.361 68.357 164.061 68.772 163.893 69.064 163.57 69.434 163.318 69.649 163.211 69.788 162.935 70.003 162.552 70.234 162.108 70.464 161.797 70.587 161.653 70.68 161.521 70.71 161.234 70.849 161.102 70.864 160.839 71.034 160.048 71.31 159.665 71.526 159.185 72.018 158.778 72.587 158.179 73.772 157.904 74.218 157.173 75.525 156.849 76.294 156.67 76.802 156.502 77.048 156.202 77.433 155.939 77.91 155.819 78.217 155.52 78.817 155.076 79.925 154.897 80.155 154.633 80.94 154.465 81.232 154.31 81.693 153.95 82.478 153.735 82.862 153.615 83.001 153.495 83.093 153.279 83.324 153.207 83.462 152.74 83.955 152.561 84.216 152.285 84.431 151.854 84.631 151.123 85.124 150.644 85.323 150.368 85.493 149.949 85.939 149.146 86.523 148.559 86.831 148.38 86.877 147.481 87 147.206 86.908 147.014 86.908 146.403 86.769 146.127 86.6 145.972 86.554 145.433 86.139 145.277 86.062 145.169 85.939 144.774 85.616 144.522 85.431 144.115 84.924 143.863 84.77 143.755 84.647 143.612 84.57 143.528 84.447 143.288 84.262 143.204 84.124 143.085 83.662 143.037 83.355 142.857 82.955 142.51 82.416 142.462 82.263 142.474 82.109 142.737 81.355 143.312 80.217 143.552 79.694 143.588 79.54 143.995 78.679 144.091 78.371 144.378 77.817 144.51 77.71 144.558 77.571 144.882 77.033 145.313 76.202 145.481 75.925 145.504 75.787 145.648 75.495 145.672 75.341 145.792 75.048 145.816 74.879 146.008 74.449 146.032 74.264 146.068 73.802 146.056 72.972 146.139 72.68 146.092 72.187 146.103 71.849 145.96 71.587 145.708 70.88 145.612 70.418 145.265 69.557 145.181 69.264 145.073 68.972 144.977 68.849 144.965 68.68 145.037 68.557 144.87 68.311 144.702 67.865 144.594 67.418 144.45 66.388 144.462 66.219 144.319 65.588 144.319 65.296 144.259 64.849 144.139 64.372 144.187 64.234 144.414 64.034 145.205 64.003 145.349 64.034 145.828 64.049 146.115 64.096 146.235 64.019 146.535 64.019 146.99 64.08 147.912 63.988 148.224 64.019 148.559 63.988 148.883 64.049 149.542 64.003 149.709 64.049 149.877 64.019 150.021 64.049 150.177 64.003 151.195 64.003 151.351 64.019 151.926 64.003 152.081 63.972 152.237 64.003 152.549 63.911 152.86 63.896 153.004 63.865 153.447 63.849 153.735 63.911 153.902 63.911 154.07 63.865 154.166 63.726 154.106 63.403 154.106 62.803 154.142 62.649 154.25 62.542 154.274 62.373 154.25 61.742 154.286 61.588 154.274 60.48 154.37 60.003 154.453 59.834 154.789 59.311 154.813 59.173 154.885 59.049 155.1 58.819 155.364 58.419 155.412 58.265 155.651 57.88 155.771 57.588 155.867 57.465 156.059 57.049 156.25 56.773 156.358 56.68 156.49 56.388 156.825 56.065 156.873 55.911 156.981 55.788 156.981 55.634 156.921 55.496"><title>2020-07-25 10.9km</title></polyline><polyline fill="none" stroke="#4dd2ff" stroke-linecap="round" stroke-linejoin="round" stroke-width=".5" points="36.503 115.713 36.491 115.851 36.419 115.99 36.311 116.082 36.263 116.236 36.023 116.652 35.819 116.883 35.579 117.299 35.375 117.561 35.063 118.162 34.703 118.717 34.571 119.01 34.296 119.441 34.104 119.687 33.936 120.103 33.924 120.427 33.84 120.92 33.864 121.444 33.84 121.613 33.876 121.752 33.9 122.599 33.96 123.092 33.9 123.4 33.9 123.709 33.804 123.847 33.516 123.878 33.06 123.893 32.76 123.97 32.16 123.878 32.016 123.909 31.164 123.878 31.02 123.893 30.876 123.863 30.097 123.878 29.953 123.847 29.329 123.909 28.885 123.863 27.937 123.924 26.869 123.832 26.39 123.893 26.066 123.893 25.73 123.97 25.574 123.986 24.278 124.017 24.11 124.047 24.038 124.171 24.05 124.525 24.014 125.141 24.05 125.295 24.098 125.927 24.062 126.066 24.122 126.204 24.17 126.512 24.266 126.805 24.29 126.959 24.338 127.129 24.362 127.468 24.422 127.76 24.566 128.222 24.83 128.792 25.022 129.424 25.298 130.009 25.406 130.133 25.49 130.287 25.55 130.626 25.634 130.934 25.634 131.103 25.718 131.55 25.742 131.873 25.862 132.32 25.886 132.49 25.874 132.628 25.922 133.121 25.886 133.26 25.898 133.414 25.838 133.907 25.898 134.076 25.898 134.246 25.814 134.4 25.718 134.708 25.634 135.047 25.466 135.524 25.43 135.694 25.262 135.956 25.118 136.387 24.83 136.957 24.626 137.219 24.374 137.635 24.266 137.927 24.158 138.035 24.038 138.328 23.858 138.621 23.426 139.514 23.33 139.653 23.258 139.807 23.15 139.945 23.03 140.284 22.898 140.762 22.275 142.086 22.227 142.394 22.239 142.564 22.287 142.749 22.383 142.857 22.563 143.118 22.683 143.442 22.767 143.565 22.839 143.719 22.875 143.889 22.851 144.043 22.898 144.197 23.666 144.813 23.966 144.982 24.098 145.105 24.302 145.352 24.638 145.645 24.914 145.829 24.998 145.953 25.358 146.245 25.634 146.43 25.91 146.569 26.51 146.8 26.821 146.892 27.001 146.892 27.517 147 28.021 146.908 28.333 146.738 28.657 146.646 29.017 146.384 29.341 146.199 29.785 145.922 30.277 145.475 30.528 145.275 30.816 145.121 30.984 145.059 31.116 144.936 31.512 144.643 32.22 144.181 32.808 143.642 32.904 143.504 33.456 142.934 33.864 142.148 34.008 142.056 34.164 141.578 34.499 140.823 34.631 140.361 35.219 139.052 35.435 138.436 35.639 137.974 35.723 137.82 35.879 137.85 36.047 137.773 36.095 137.635 36.335 137.234 36.479 136.926 36.851 136.387 36.971 136.295 37.091 136.171 37.247 135.709 37.415 135.463 37.523 135.355 37.691 135.078 37.775 134.954 37.883 134.877 38.063 134.6 38.122 134.431 38.362 133.999 38.506 133.707 38.602 133.414 38.602 133.275 38.854 132.829 39.046 132.613 39.274 132.382 39.454 132.089 39.922 131.704 40.354 131.411 40.51 131.334 40.81 131.165 40.966 131.134 41.71 130.764 41.842 130.687 42.129 130.549 42.417 130.379 42.537 130.256 42.813 130.117 43.341 129.748 44.025 129.023 44.289 128.638 44.385 128.546 45.261 127.144 45.693 126.405 45.764 126.266 46.232 125.542 46.376 125.28 46.496 125.157 46.604 124.879 46.976 124.294 47.456 123.462 47.588 123.323 47.624 123.2 47.744 123.077 48.2 122.353 48.332 122.091 48.668 121.521 48.944 121.12 49.208 120.674 49.46 120.304 49.663 120.057 49.819 119.765 50.035 119.472 50.215 119.179 50.491 118.609 50.923 117.931 51.031 117.792 51.175 117.484 51.307 117.222 51.463 117.238 51.583 117.33 52.003 117.808 52.207 118.224 52.279 118.501 52.519 118.763 52.735 119.194 52.783 119.364 52.879 119.518 52.951 119.672 52.987 119.98 53.107 120.073 53.418 119.996 53.682 119.811 53.79 119.718 53.862 119.564 54.162 119.21 54.402 119.01 54.474 118.871 54.618 118.778 54.846 118.532 55.038 118.316 55.206 118.054 55.806 117.392 55.962 117.099 55.878 116.945 55.05 116.406 54.906 116.344 54.666 116.113 54.042 115.589 53.778 115.374 53.478 115.235 53.358 115.127 53.203 115.035 53.011 114.788 52.879 114.711 53.61 113.463 53.874 113.032 54.054 112.801 54.39 112.2 55.05 111.26 55.494 110.551 55.554 110.412 55.926 109.904 55.998 109.734 56.442 109.103 56.898 108.286 56.982 108.163 57.03 108.039 57.281 107.623 57.401 107.485 57.569 107.192 57.773 106.961 57.389 106.73 57.305 106.591 57.269 106.422 57.221 105.667 57.173 105.543 57.125 105.081 57.09 104.942 56.97 104.634 56.838 103.818 56.73 103.525 56.61 103.278 56.442 102.955 56.13 102.6 55.878 102.2 55.446 101.707 55.362 101.568 55.026 101.229 54.414 100.397 54.006 100.073 53.31 99.657 53.155 99.549 52.303 99.072 51.619 98.625 51.355 98.424 51.187 98.347 51.067 98.239 50.923 98.193 50.779 98.085 50.635 98.024 49.963 97.531 49.819 97.454 49.699 97.361 49.555 97.315 49.04 96.945 48.908 96.914 48.812 96.806 48.38 96.56 48.248 96.452 48.116 96.39 48.008 96.298 47.72 96.113 47.348 95.82 47.168 95.589 46.94 95.358 46.568 94.818 46.448 94.711 46.268 94.402 46.148 94.294 46.016 93.986 45.848 93.709 45.752 93.601 45.633 93.524 45.417 93.277 45.309 93.139 45.201 93.031 45.057 93 44.745 93.031 44.361 93.293 44.229 93.401 44.037 93.647 43.809 93.832 43.389 94.048 43.257 94.11 43.089 94.094 42.969 94.187 42.657 94.187 42.357 94.14 42.009 94.171 41.842 94.202 41.698 94.202 41.374 94.248 41.254 94.341 41.086 94.356 40.522 94.51 40.042 94.526 39.058 94.633 38.902 94.618 38.566 94.68 38.218 94.695 37.763 94.587 37.571 94.603 37.415 94.587 36.947 94.433 36.611 94.387 36.359 94.526 35.687 94.387 35.195 94.402 35.051 94.433 34.907 94.526 34.751 94.587 34.667 94.695 34.475 95.327 34.367 95.589 34.331 95.743 34.307 96.051 34.224 96.544 34.152 97.207 34.152 97.546"><title>2020-07-27 10.1km</title></polyline><polyline fill="none" stroke="#4dd2ff" stroke-linecap="round" stroke-linejoin="round" stroke-width=".5" points="83.643 147 83.719 146.816 83.892 146.128 84.096 145.566 84.179 145.401 84.277 145.12 84.473 144.413 84.541 144.209 84.617 144.045 84.783 143.483 84.866 143.308 84.911 143.114 84.896 143.027 84.836 142.959 84.217 142.543 84.149 142.475 84.074 142.427 83.938 142.271 83.892 142.175 83.847 142.078 83.84 141.884 83.809 141.787 83.809 141.671 83.802 141.574 83.825 141.167 83.787 141.08 83.787 140.983 83.772 140.779 83.696 140.595 83.628 140.314 83.591 140.227 83.576 140.14 83.485 139.946 83.462 139.839 83.244 139.49 83.168 139.306 82.995 139.054 82.851 138.783 82.685 138.521 82.625 138.454 82.565 138.357 82.557 138.269 82.504 138.182 82.384 137.901 82.255 137.523 82.074 136.913 82.082 136.806 82.052 136.7 82.044 136.496 82.044 136.312 82.142 135.944 82.15 135.76 82.24 135.401 82.255 135.207 82.285 135.101 82.278 134.994 82.316 134.907 82.368 134.684 82.467 134.374 82.489 134.17 82.474 133.938 82.482 133.831 82.504 133.724 82.655 133.095 82.738 132.794 82.783 132.697 82.881 132.213 82.942 132.019 83.078 131.428 83.161 131.147 83.417 130.468 83.44 130.362 83.523 130.168 83.583 130.09 83.659 129.916 84.224 127.28 84.3 127.376 84.247 127.299 84.322 127.105 84.36 126.921 84.458 126.64 84.504 126.436 84.624 126.02 84.692 125.845 84.73 125.448 84.775 125.176 84.843 124.973 84.926 124.915 85.122 124.944 85.311 125.021 86.095 125.205 86.209 125.167 86.269 125.099 86.465 125.06 86.676 125.05 86.744 125.002 86.737 124.798 86.661 124.188 86.624 123.79 86.601 123.684 86.601 123.577 86.556 123.374 86.541 123.073 86.571 122.976 86.586 122.86 86.631 122.773 86.684 122.598 86.707 122.288 86.767 122.065 86.805 121.968 86.835 121.658 86.895 121.454 86.933 121.241 86.993 121.047 87.106 120.563 87.106 120.466 87.084 120.165 87.099 119.865 87.091 119.778 87.129 119.312 87.174 119.089 87.205 119.002 87.272 118.614 87.559 117.538 87.574 117.344 87.619 117.267 87.635 117.18 87.672 117.102 87.68 116.986 87.778 116.676 87.801 116.288 87.853 115.997 87.831 115.881 87.838 115.774 87.884 115.677 87.906 115.483 87.891 115.386 87.861 115.299 87.868 115.183 87.891 115.076 87.906 114.882 87.921 114.572 87.914 114.369 87.951 114.175 87.936 114.078 87.936 113.884 87.959 113.7 88.019 113.486 88.163 113.128 88.208 112.924 88.268 112.837 88.389 112.527 88.502 112.362 88.623 112.061 88.638 111.964 88.774 111.693 88.842 111.596 89.053 111.373 89.325 111.228 89.408 111.17 89.498 111.14 89.755 110.985 90.177 110.704 90.441 110.433 90.607 110.181 90.683 109.977 90.773 109.783 90.909 109.405 90.984 109.231 91.082 109.056 91.143 108.882 91.15 108.775 91.173 108.688 91.294 108.426 91.392 108.135 91.497 107.854 91.52 107.747 91.595 107.553 91.618 107.437 91.626 107.33 91.603 107.137 91.558 106.923 91.414 106.642 91.346 106.429 91.301 106.332 91.271 106.119 91.271 105.915 91.301 105.828 91.422 105.653 91.452 105.566 91.512 105.479 91.724 105.265 91.814 105.101 91.927 104.936 92.056 104.771 92.297 104.432 92.372 104.354 92.508 104.083 92.78 103.637 92.818 103.54 92.886 103.462 93.134 102.997 93.376 102.638 93.731 102.26 93.821 102.182 93.881 102.105 93.964 102.027 94.13 101.901 94.228 101.853 94.296 101.785 94.5 101.707 94.583 101.639 94.772 101.571 95.119 101.339 95.262 101.164 95.337 101.106 95.526 100.883 95.685 100.747 95.745 100.67 95.851 100.602 95.934 100.515 96.099 100.427 96.182 100.35 96.265 100.33 96.688 100.049 96.771 100.001 96.846 99.923 96.997 99.807 97.269 99.671 97.337 99.613 97.435 99.564 97.503 99.506 97.601 99.448 97.661 99.371 97.82 99.264 97.978 99.128 98.114 98.983 98.227 98.808 98.665 98.062 98.899 97.742 98.989 97.548 99.057 97.266 99.102 97.16 99.102 97.073 99.155 96.985 99.17 96.888 99.208 96.801 99.268 96.704 99.291 96.607 99.298 96.5 99.381 96.316 99.495 96.132 99.66 96.035 100.038 95.861 100.422 95.705 100.785 95.492 100.936 95.337 101.2 95.191 101.252 95.094 101.335 95.017 101.366 94.93 101.449 94.862 101.713 94.736 101.788 94.678 101.894 94.639 101.984 94.571 102.082 94.532 102.241 94.406 102.324 94.367 102.716 94.028 102.89 93.921 103.123 93.727 103.206 93.688 103.395 93.65 103.463 93.582 103.569 93.436 103.606 93.32 103.75 93.194 104.217 93 104.346 93.175 104.534 93.562 104.715 93.824 105.417 94.377 106.473 95.124 107.514 95.637 108.752 96.404 109.099 96.665 109.687 97.063 110.11 97.373 110.291 97.489 110.532 97.674 111.106 97.974 111.445 98.188 111.513 98.255 111.686 98.372 111.92 98.498 111.996 98.566 111.973 98.663 112.018 98.75 111.981 98.837 112.026 98.915 112.086 98.983 112.411 99.196 112.916 99.594 113.105 99.7 113.354 99.894 114.04 100.33 114.078 100.437 114.38 100.932 114.433 101.019 114.584 101.145 114.923 101.348 114.991 101.436 115.089 101.465 115.263 101.562 115.413 101.707 115.678 101.853 115.926 102.047 116.123 102.144 116.372 102.308 116.636 102.405 116.809 102.531 116.99 102.619 117.171 102.735 117.269 102.764 117.526 102.9 117.941 103.191 117.956 103.288 117.594 103.898 117.466 104.16 117.367 104.325 117.337 104.412 117.171 104.684 117.066 104.955 116.953 105.207 116.794 105.479 116.704 105.663 116.636 105.76 116.372 106.691 116.326 106.894 116.319 107.001 116.281 107.185 116.221 107.272 116.168 107.456 116.16 107.553 116.108 107.844 116.055 107.941 116.025 108.116 115.979 108.203 115.911 108.397 115.866 108.668"><title>2020-08-01 10.2km</title></polyline><polyline fill="none" stroke="red" stroke-linecap="round" stroke-linejoin="round" stroke-width=".5" points="133 124.544 133.208 124.581 133.907 124.908 134.19 125.13 134.496 125.249 134.779 125.516 135.079 125.553 135.298 125.642 135.408 125.746 135.939 125.968 136.147 126.087 136.471 126.294 136.863 126.561 137.1 126.621 137.239 126.702 137.412 126.702 137.758 126.836 137.984 126.866 138.226 127.036 138.434 127.125 138.498 127.095 138.723 126.814 138.971 126.391 139.139 126.198 139.398 125.805 139.664 125.301 139.849 125.39 139.976 125.583 140.039 125.62 140.097 125.746 140.132 126.05 140.363 126.569 140.403 126.732 140.594 127.088 140.611 127.251 140.75 127.592 140.831 127.733 140.94 127.83 141.108 128.067 141.241 128.148 141.287 128.23 141.57 128.49 141.783 128.549 142.032 128.712 142.251 128.801 142.54 129.038 142.834 129.38 143.094 129.75 143.712 130.47 144.024 131.078 144.33 131.308 144.544 131.537 145.023 131.945 145.277 132.123 146.074 132.561 146.317 132.613 146.444 132.524 146.877 131.849 147.466 131.167 147.576 130.966 147.61 130.811 147.599 130.514 147.287 129.698 147.16 129.194 147.194 128.749 147.397 128.186 147.651 127.793 147.818 127.607 148.072 127.399 148.401 127.199 149.065 127.014 149.21 126.932 149.25 126.858 149.129 126.658 148.725 126.398 148.494 126.191 148.442 126.042 148.586 125.887 148.869 125.723 149.106 125.642 149.499 125.575 150.682 125.531 151.797 125.575 152.432 125.553 152.663 125.531 153.327 125.367 154.095 125.071 154.309 124.885 154.655 124.752 155.285 124.426 155.966 124.018 156.48 123.788 156.96 123.528 157.479 123.313 158.305 122.853 159.818 122.112 160.217 121.874 161.504 121.214 162.088 120.969 162.717 120.799 163.202 120.725 163.531 120.695 164.582 120.732 164.958 120.799 165.166 120.888 165.795 120.962 166.881 121.185 167.77 121.274 168.226 121.37 169.023 121.437 170.484 121.778 171.269 121.793 172.049 121.904 173.291 122.119 173.522 122.193 173.851 122.23 174.249 122.327 176.496 122.712 176.958 122.764 177.194 122.824 178.193 122.95 179.21 122.92 179.995 122.838 180.838 122.594 181.485 122.297 182.091 121.926 182.715 121.414 183.108 120.962 184.338 119.419 184.488 119.256 184.754 119.108 185.481 118.87 185.793 118.878 186.128 119.056 186.313 119.212 186.705 119.33 186.936 119.531 187 119.508 186.503 119.16 186.405 119.048 186.14 118.692 185.833 118.188 185.429 117.758 185.158 117.402 184.881 117.135 184.586 117.053 183.887 116.979 183.737 116.949 183.668 116.905 183.599 116.764 183.581 116.519 183.518 116.297 183.483 116.222 183.42 116.193 183.35 116.156 183.287 116.193 183.05 116.578 182.923 116.63 182.715 116.601 182.525 116.052 182.415 115.852 182.253 115.711 182.109 115.666 181.97 115.681 181.612 115.829 181.208 116.185 181 116.259 180.625 116.267 180.122 116.178 179.753 116.185 179.689 116.156 179.585 115.948 179.522 115.896 179.441 115.889 179.366 115.889 179.216 115.941 178.962 116.126 178.748 116.148 178.615 116.081 178.523 115.955 178.5 115.718 178.523 115.406 178.448 115.273 178.378 115.236 178.303 115.243 177.887 115.414 177.737 115.414 177.674 115.384 177.645 115.317 177.466 114.776 177.339 114.591 177.148 114.494 176.859 114.398 176.473 114.39 176.236 114.346 175.82 113.99 175.629 113.745 175.583 113.589 175.474 113.485 174.879 113.367 174.163 113.092 173.943 112.862 173.845 112.662 174.024 112.335 174.313 111.482 174.446 110.681 174.423 110.295 174.463 110.154 174.463 109.85 174.428 109.613 174.301 109.272 174.278 109.057 174.18 108.93 174.128 108.641 174.07 108.5 173.891 108.166 173.77 108.07 173.597 107.803 173.412 107.632 173.227 107.528 172.944 107.432 172.488 107.387 172.326 107.41 171.98 107.528 171.766 107.721 171.697 107.766 171.622 107.773 171.42 107.677 171.2 107.677 170.969 107.573 171.067 107.677 171.004 107.692 171.044 107.699 171.056 107.617 170.992 107.588 170.859 107.647 170.657 107.595 170.519 107.602 170.386 107.558 170.363 107.491 170.346 107.588 170.397 107.729 170.386 107.973 170.415 108.055 170.091 108.374 169.612 108.582 169.474 108.611 169.219 108.745 169.081 108.76 168.838 108.916 168.272 109.168 167.828 109.435 166.956 109.798 165.939 110.325 165.656 110.422 164.842 110.429 164.617 110.473 164.109 110.622 162.648 111.089 161.909 111.252 161.718 111.349 161.187 111.519 160.979 111.623 160.863 111.712 160.742 111.883 160.627 112.157 160.188 112.699 160.02 112.973 159.835 113.203 159.477 113.404 158.732 113.915 158.513 113.967 158.19 114.108 158.005 114.346 157.762 114.531 157.716 114.598 157.577 114.672 157.271 114.761 157.04 114.769 156.105 115.065 155.839 115.332 155.556 115.451 155.372 115.718 155.308 115.963 155.256 116.015 155.123 116.074 155.025 116.185 154.632 116.319 154.211 116.645 154.165 116.705 154.217 116.831 154.193 116.89 154.13 116.875 154.101 117.023 153.974 117.112 153.645 117.439 153.431 117.476 152.836 117.342 152.594 117.32 152.19 117.105 151.693 116.942 151.433 116.801 151.11 116.667 150.457 116.326 149.978 116.044 149.591 115.874 149.516 115.866 149.268 115.629 149.21 115.503 149.042 115.369 148.904 115.406 148.759 115.577 148.517 115.77 148.315 115.837 147.489 116.178 147.229 116.311 146.507 116.534 146.19 116.571 145.687 116.697 145.41 116.838 145.167 117.016 144.879 117.387 144.821 117.446 144.654 117.558 144.659 117.632 144.105 118.433 143.706 119.026 143.487 119.412 143.181 119.731 142.938 120.116 142.725 120.547 142.39 121.036 141.968 121.733 141.893 121.778 141.616 122.223 141.472 122.393 140.906 123.402 140.628 123.78 140.236 124.426 139.976 124.908 139.941 125.13 139.716 125.316 139.156 126.25"><title>2020-08-16 20.7km</title></polyline><polyline fill="none" stroke="#4dd2ff" stroke-linecap="round" stroke-linejoin="round" stroke-width=".5" points="18.255 183.403 18.603 182.593 18.753 182.166 18.852 181.996 18.869 181.782 18.985 181.591 19.085 181.143 19.218 180.972 19.267 180.738 19.417 180.312 19.566 180.098 19.732 179.928 19.965 179.885 19.699 179.501 19.749 179.331 19.981 178.713 19.998 178.457 20.114 178.265 20.247 177.86 20.429 177.476 20.529 177.028 20.844 176.197 20.961 175.771 21.06 175.536 21.093 175.344 21.243 175.195 21.376 174.96 21.376 174.747 21.226 174.619 21.044 174.513 20.728 174.214 20.38 173.98 19.633 173.532 19.301 173.255 19.135 173.063 19.052 172.892 19.002 172.658 18.803 171.763 18.869 171.507 18.852 171.294 18.902 170.867 18.852 170.633 18.852 169.972 18.686 169.098 18.388 168.223 17.956 167.413 17.691 167.072 17.475 166.646 17.076 166.027 16.993 165.814 16.761 165.43 16.678 165.239 16.562 165.089 16.495 164.876 16.346 164.727 16.23 164.492 15.848 163.938 15.815 163.725 15.383 162.872 15.118 161.912 15.151 161.721 14.985 161.102 14.985 160.676 14.918 160.484 14.935 160.271 15.068 159.61 15.167 159.375 15.317 158.139 15.4 157.947 15.45 157.733 15.45 157.264 15.499 156.838 15.45 156.625 15.649 155.985 15.914 155.409 16.047 155.239 16.529 155.324 16.744 155.345 17.126 155.175 17.325 155.154 18.437 155.388 18.852 155.409 19.085 155.516 19.699 155.623 20.38 155.644 21.06 155.58 22.322 155.281 23.268 155.175 24.397 154.962 25.741 154.898 27.086 154.727 27.534 154.599 27.899 154.386 28.082 154.258 28.214 154.066 28.414 154.002 28.729 153.746 28.812 153.576 29.094 153.277 29.493 153.021 29.708 153 30.123 153.533 30.289 153.661 30.472 153.853 30.588 154.066 31.036 154.642 31.402 155.239 31.7 155.601 31.817 155.793 32.364 156.582 33.012 157.264 33.559 157.67 33.908 157.84 35.053 158.608 36.431 159.418 36.846 159.652 37.062 159.716 37.195 159.866 37.543 160.164 37.759 160.271 37.908 160.42 38.323 160.633 38.655 160.889 39.983 161.742 40.614 162.083 40.78 162.211 41.959 162.872 42.291 163.128 43.419 164.428 43.934 165.089 44.1 165.217 44.216 165.43 44.598 165.985 45.079 166.56 45.212 166.774 45.395 167.136 45.66 167.776 45.893 168.458 45.926 168.714 46.208 169.737 46.275 169.908 46.341 170.334 46.358 170.803 46.308 171.485 46.474 172.125 46.358 172.573 46.092 172.871 45.627 173.617 45.362 173.937 45.279 174.15 45.129 174.342 45.03 174.555 44.731 174.918 44.648 175.11 44.498 175.302 44.299 175.685 44.166 175.835 44.067 176.026 43.801 176.368 43.353 177.071 43.552 177.178 44 177.263 44.2 177.37 43.967 177.306 43.751 177.37 43.386 177.903 43.32 178.094 43.038 178.478 42.921 178.713 42.623 179.096 42.523 179.331 42.125 179.885 41.809 180.439 41.295 181.207 41.195 181.42 41.66 181.889 41.876 182.017 42.108 182.081 42.506 182.294 43.519 182.678 43.868 182.848 44.05 182.976 44.216 183.168 44.482 183.765 44.548 184.191 44.515 184.426 44.532 185.343 44.482 186.195 44.532 186.409 44.449 186.6 44.332 186.792 44.05 187.133 43.834 187.176 43.668 187.56 43.502 187.709 43.154 187.922 42.988 188.093 42.623 188.327 42.457 188.519 42.341 188.732 42.307 188.924 42.025 189.265 41.809 189.393 40.813 190.736 40.78 190.949 40.863 191.162 40.747 191.589 40.946 192.185 41.046 192.377 41.179 192.548 41.195 192.761 41.262 192.953 41.56 193.209 41.71 193.379 42.009 193.742 42.341 194.275 42.955 194.871 43.718 195.255 44.15 195.383 44.366 195.575 45.179 195.98 45.312 196.172 45.511 196.278 46.009 196.662 46.192 196.811 46.557 197.067 46.69 197.238 46.856 197.365 46.939 197.579 47.088 197.749 47.304 198.111 48.333 199.305 48.632 199.604 48.914 199.945 49.644 201.074 49.711 201.309 50.474 202.225 50.607 202.439 50.657 202.652 50.806 202.865 51.188 203.185 51.653 203.739 51.835 203.909 52.051 204.037 52.815 204.762 53.512 205.295 53.91 205.551 54.724 206.02 54.956 206.105 56.334 206.915 56.533 207 56.765 206.957 56.931 206.872 57.778 205.529 58.757 204.208 58.89 204.037 59.571 203.398 59.853 203.078 60.085 202.694 60.185 202.481 60.284 202.055 60.45 201.629 60.45 201.202 60.401 200.989 59.952 199.902 59.753 199.518 59.687 199.113 59.537 198.666 59.388 198.303 59.338 197.856 59.222 197.643 59.255 196.769 59.239 196.555 59.255 196.3 59.67 195.042 60.052 194.211 60.168 193.997 60.749 193.273 61.081 192.91 61.397 192.591 62.16 192.122 62.957 191.738 63.123 191.631 64.401 191.29 64.633 191.269 64.965 190.992 65.082 190.779 65.048 190.544 64.169 189.947 63.82 189.649 62.874 189.052 62.658 188.988 61.812 188.54 61.446 188.263 60.849 187.688 60.434 187.474 59.471 186.856 59.189 186.494 58.691 186.067 58.276 185.854 57.545 185.343 56.965 185.002 56.782 184.852 56.566 184.746 55.105 183.765 54.89 183.658 54.541 183.381 54.143 183.19 53.611 182.827 52.864 182.379 52.632 182.337 51.669 181.782 51.47 181.655 51.122 181.356 50.74 181.164 50.524 181.122 50.325 181.143 49.113 179.97 48.665 179.779 48.432 179.715 47.702 179.224 47.569 179.032 47.237 178.755 47.287 178.563 46.872 178.372 46.69 178.244 46.324 178.03 46.125 177.988 45.196 177.391 44.847 177.22 44.648 177.178 44.283 177.412 44.083 177.391 43.901 177.306 43.718 177.433 43.619 177.604 43.469 177.732 43.204 178.116 43.104 178.308 42.938 178.478 42.805 178.691 42.457 179.267 42.39 179.437 41.859 180.248 41.677 180.397 41.594 180.567 40.996 181.548 40.415 182.55 40.282 182.721 39.884 183.445 39.751 183.595 38.589 185.471 38.473 185.641 38.24 185.684 38.058 185.812 37.726 186.131 37.576 186.302 37.494 186.494 37.361 186.686 37.294 186.877 37.095 187.261 36.946 187.389 36.863 187.581 36.464 188.114 36.249 188.498 35.568 189.457 34.655 191.248 34.406 191.589 34.19 191.525 33.626 191.248 33.443 191.12 32.846 190.906 32.613 190.864 31.667 190.267 31.086 190.011 30.721 189.798 30.074 189.478 29.675 189.329 29.559 189.137 29.327 189.073 29.161 188.988 28.696 188.967 28.314 188.796 27.899 188.711 27.717 188.562 27.368 188.348 27.169 188.263 26.737 188.199 26.588 188.029 26.405 187.901 26.04 187.709"><title>2020-09-01 10.2km</title></polyline><polyline fill="none" stroke="#4dd2ff" stroke-linecap="round" stroke-linejoin="round" stroke-width=".5" points="73 180.499 73.076 180.514 73.276 180.605 73.412 180.62 73.564 180.665 73.788 180.763 73.876 180.778 73.947 180.816 74.017 180.823 74.229 180.929 74.299 180.952 74.364 180.99 74.505 181.027 74.564 181.08 74.652 181.08 74.934 181.186 75.228 181.307 75.505 181.465 75.74 181.533 75.875 181.609 75.952 181.624 76.369 181.866 76.44 181.881 76.581 181.956 76.804 182.032 77.016 182.13 77.322 182.168 77.545 182.243 77.704 182.236 77.839 182.341 78.068 182.447 78.239 182.492 78.392 182.515 78.451 182.545 78.598 182.59 78.668 182.56 78.821 182.568 78.892 182.553 78.968 182.522 79.033 182.477 79.086 182.409 79.127 182.349 79.144 182.273 79.191 182.22 79.321 182.032 79.368 181.986 79.391 181.918 79.538 181.714 79.621 181.563 79.674 181.496 79.703 181.428 79.879 181.171 79.985 180.937 80.068 180.793 80.244 180.514 80.279 180.431 80.326 180.363 80.391 180.302 80.626 179.887 80.755 179.698 80.867 179.502 81.014 179.578 81.073 179.63 81.126 179.683 81.173 179.751 81.232 179.804 81.238 179.88 81.273 179.955 81.291 180.023 81.408 180.333 81.408 180.431 81.532 180.733 81.573 180.786 81.584 180.869 81.637 181.027 81.684 181.095 81.667 181.178 81.749 181.314 81.779 181.458 82.043 181.624 82.014 181.76 82.067 181.85 82.114 181.896 82.172 182.039 82.214 182.1 82.272 182.152 82.302 182.22 82.443 182.341 82.466 182.417 82.566 182.545 82.702 182.621 82.76 182.689 82.984 182.734 83.313 182.908 83.637 183.134 83.866 183.33 83.966 183.444 84.213 183.761 84.377 184.017 84.43 184.078 84.46 184.146 84.642 184.319 84.789 184.501 84.865 184.637 85.042 184.901 85.083 184.984 85.242 185.226 85.301 185.301 85.395 185.414 85.571 185.573 85.612 185.633 85.677 185.694 85.883 185.83 86.159 186.116 86.306 186.222 86.359 186.283 86.512 186.381 86.841 186.562 86.994 186.569 87.206 186.66 87.482 186.811 87.552 186.834 87.641 186.834 87.711 186.788 87.794 186.645 87.852 186.577 87.882 186.502 88.023 186.283 88.417 185.777 88.634 185.55 88.828 185.407 88.952 185.218 88.987 184.999 88.981 184.908 88.97 184.833 88.87 184.516 88.84 184.448 88.581 183.768 88.534 183.466 88.546 183.376 88.529 183.308 88.534 183.134 88.57 182.915 88.605 182.772 88.664 182.605 88.764 182.379 88.893 182.16 88.952 182.1 89.028 181.964 89.328 181.714 89.663 181.496 89.881 181.405 89.946 181.375 90.104 181.352 90.498 181.231 90.592 181.11 90.616 181.035 90.598 180.959 90.557 180.907 90.492 180.861 90.422 180.823 90.228 180.672 90.151 180.65 89.816 180.446 89.763 180.355 89.757 180.28 89.869 180.151 89.998 180.053 90.134 179.97 90.281 179.902 90.581 179.827 90.81 179.797 91.116 179.774 91.198 179.781 91.521 179.781 91.604 179.766 92.145 179.781 92.221 179.766 92.368 179.774 92.509 179.759 92.591 179.774 92.738 179.766 92.827 179.781 92.903 179.766 93.05 179.781 93.662 179.797 94.126 179.766 94.285 179.744 94.591 179.661 94.667 179.646 94.82 179.6 95.255 179.411 95.467 179.306 95.602 179.26 95.655 179.215 95.731 179.094 95.937 179.034 96.366 178.868 96.437 178.815 96.784 178.649 96.937 178.558 97.013 178.536 97.378 178.332 97.86 178.045 98.318 177.818 98.748 177.576 99.771 177.055 100.071 176.889 100.435 176.731 100.923 176.489 101.041 176.406 101.546 176.179 101.882 175.983 102.105 175.885 102.481 175.666 102.705 175.575 102.916 175.455 103.281 175.296 103.675 175.16 103.898 175.069 104.057 175.024 104.439 174.949 104.516 174.941 104.745 174.903 105.08 174.858 105.633 174.835 106.115 174.873 106.685 174.956 106.768 174.979 106.997 174.994 107.361 175.047 107.567 175.062 107.708 175.107 108.179 175.183 108.39 175.228 108.602 175.258 108.814 175.319 109.12 175.356 109.437 175.417 109.684 175.455 109.907 175.447 110.384 175.492 110.625 175.545 111.642 175.689 111.713 175.719 112.248 175.802 112.483 175.877 112.877 175.93 112.953 175.96 113.371 176.028 113.835 176.104 114.082 176.127 114.476 176.187 114.717 176.247 115.129 176.285 115.434 176.361 116.081 176.436 116.305 176.489 116.951 176.542 117.204 176.587 117.422 176.648 118.474 176.791 119.021 176.912 119.256 176.942 119.421 176.95 119.815 177.003 120.379 177.063 120.844 177.093 121.161 177.093 121.655 177.04 121.796 177.033 121.855 176.995 122.002 176.995 122.155 176.98 122.478 176.912 122.555 176.882 122.714 176.844 123.014 176.708 123.096 176.685 123.243 176.602 123.384 176.542 123.46 176.519 123.525 176.466 123.801 176.315 124.125 176.089 124.254 175.983 124.548 175.711 124.872 175.387 125.03 175.198 125.077 175.13 125.342 174.828 125.73 174.314 125.842 174.216 125.977 174.02 126.377 173.536 126.606 173.348 127 173.166"><title>2020-09-13 10.2km</title></polyline><polyline fill="none" stroke="#4dd2ff" stroke-linecap="round" stroke-linejoin="round" stroke-width=".5" points="156.417 175.755 156.238 176.017 156.106 176.293 156.07 176.462 155.843 176.677 155.604 177.077 155.496 177.184 155.4 177.338 155.376 177.492 155.161 177.922 154.695 178.582 154.635 178.721 154.443 178.997 154.037 179.719 153.917 179.842 153.845 179.996 153.809 180.334 153.857 182.208 153.821 182.546 153.833 183.36 153.773 183.852 153.63 183.928 152.96 183.913 152.816 183.959 151.943 183.944 151.489 183.975 150.855 183.959 150.352 183.99 150.209 183.975 149.897 183.975 149.742 183.944 149.419 183.975 148.641 183.959 148.318 183.99 147.995 183.959 146.919 183.959 146.763 183.99 146.608 183.959 145.986 183.99 145.459 183.975 145.292 184.005 145.148 184.067 144.323 184.036 144.048 184.082 143.916 184.174 143.844 184.312 143.964 184.789 144.012 185.296 144.108 185.787 144.155 186.294 144.227 186.617 144.251 186.97 144.371 187.754 144.61 188.353 144.706 188.491 144.801 188.829 145.112 189.643 145.328 190.089 145.495 190.749 145.639 191.072 145.878 192.531 145.854 192.823 145.89 192.961 145.818 193.545 145.842 193.698 145.818 194.006 145.77 194.313 145.639 194.605 145.435 195.434 145.292 195.757 145.184 195.895 144.993 196.371 144.813 196.632 144.682 196.939 144.514 197.17 144.108 197.876 143.916 198.353 143.677 198.813 143.426 199.474 143.186 199.889 142.816 200.718 142.552 201.148 142.373 201.578 142.337 201.762 142.182 202.223 142.493 202.838 142.576 203.483 142.684 203.636 142.72 203.959 142.78 204.097 143.162 204.42 144.179 205.172 144.287 205.295 144.574 205.464 144.825 205.633 145.4 206.278 145.639 206.432 146.416 206.693 146.859 206.908 147.003 206.939 147.146 207 147.314 207 147.457 206.954 147.613 206.954 148.079 206.846 148.235 206.785 148.366 206.693 148.653 206.601 148.893 206.416 149.323 206.171 149.646 205.91 150.053 205.664 150.316 205.449 150.603 205.264 150.974 204.927 151.225 204.742 151.381 204.665 151.5 204.543 151.788 204.389 152.386 203.882 152.458 203.744 152.685 203.498 152.888 203.298 153.139 203.083 153.606 202.423 153.845 201.947 154.001 201.486 154.168 201.21 154.467 200.426 154.623 200.15 154.695 199.858 154.838 199.581 154.994 199.151 155.197 198.767 155.221 198.598 155.472 198.168 155.783 197.4 155.903 197.277 156.142 196.694 156.226 196.586 156.321 196.463 156.621 196.264 156.728 196.095 156.812 195.772 156.932 195.465 157.087 195.173 157.183 195.065 157.302 194.774 157.506 194.512 157.554 194.328 157.948 193.652 158.188 193.099 158.463 193.207 158.606 192.915 159.216 192.178 159.551 191.84 159.922 191.579 160.52 191.271 160.784 191.164 160.939 191.164 161.214 191.056 161.465 190.887 162.028 190.626 162.458 190.38 162.973 190.012 163.212 189.812 163.32 189.72 163.427 189.582 163.75 189.29 163.822 189.167 163.918 189.059 164.157 188.66 164.432 188.26 164.588 187.984 164.947 187.431 165.425 186.724 166.035 185.757 166.873 184.312 167.148 183.928 167.315 183.652 167.375 183.529 167.674 183.483 168.093 182.884 168.236 182.776 168.464 182.5 168.727 182.07 168.858 181.962 168.966 181.839 169.205 181.409 169.241 181.271 169.325 181.117 169.732 180.595 169.887 180.334 169.935 180.18 170.126 179.903 170.246 179.781 170.33 179.627 170.426 179.504 170.772 178.813 171.06 178.475 171.191 178.167 171.227 178.014 171.335 177.676 171.454 177.568 171.957 177.998 172.064 178.152 172.363 178.828 172.519 179.289 172.722 179.719 172.794 180.011 172.878 180.134 173.045 180.165 173.356 180.103 173.5 180.011 173.643 179.903 173.715 179.781 173.847 179.289 173.943 179.151 174.242 178.982 174.481 178.767 174.624 178.705 175.163 178.121 175.235 177.968 175.354 177.829 175.51 177.722 175.725 177.338 175.725 177.169 175.641 177.031 175.402 176.816 175.139 176.631 174.325 176.124 174.014 175.817 173.763 175.648 173.667 175.556 173.416 175.356 173.141 175.202 172.89 174.926 172.77 174.864 172.698 174.695 173.273 173.973 173.344 173.85 173.428 173.543 173.512 173.405 173.715 173.174 174.158 172.544 174.206 172.391 174.301 172.222 174.648 171.715 174.888 171.285 175.007 171.162 175.043 171.008 175.342 170.501 175.677 170.009 175.845 169.702 176.227 169.134 176.275 169.011 176.467 168.78 177.005 167.751 177.172 167.49 177.304 167.397 177.484 167.152 177.591 167.044 177.771 166.752 177.818 166.614 177.711 166.506 177.448 166.383 177.304 166.291 177.244 166.153 177.149 165.508 176.945 164.739 176.933 164.555 176.885 164.401 176.802 163.879 176.646 163.418 176.431 163.034 175.892 162.373 175.821 162.235 175.51 161.912 174.923 161.159 174.852 161.036 174.744 160.929 174.541 160.591 174.254 160.207 173.823 159.73 173.691 159.638 173.452 159.377 173.368 159.239 173.033 158.839 172.962 158.701 172.746 158.44 172.483 158.332 172.029 158.224 171.885 158.209 171.048 158.271 170.916 158.194 170.76 158.163 170.629 158.102 170.246 157.825 170.067 157.733 169.971 157.641 169.684 157.518 169.421 157.379 169.05 157.118 168.775 156.949 168.631 156.842 167.77 156.334 167.124 155.812 166.92 155.551 166.861 155.397 166.538 154.982 166.286 154.537 166.023 154.137 165.963 154.014 165.557 153.507 165.365 153.2 165.234 153.077 165.066 153 164.911 153.015 164.468 153.154 164.217 153.353 163.846 153.691 163.738 153.83 163.487 154.03 163.021 154.183 162.841 154.168 162.542 154.122 161.92 154.199 161.776 154.245 161.633 154.229 161.453 154.26 161.274 154.26 161.107 154.306 160.604 154.322 160.449 154.398 159.85 154.506 159.719 154.491 159.396 154.583 159.049 154.613 158.738 154.598 158.128 154.706 157.183 154.613 156.25 154.429 155.951 154.46 155.807 154.414 155.628 154.398 155.364 154.26 155.221 154.352 155.101 154.629 154.982 154.521 154.826 154.567 154.683 154.537 154.647 154.706 154.515 154.998 154.276 155.797 154.204 156.273 154.156 157.087 154.096 157.241 154.144 157.871 154.204 158.347 154.144 158.516 153.845 158.455 153.666 158.455"><title>2020-09-16 10.3km</title></polyline><polyline fill="none" stroke="#4dd2ff" stroke-linecap="round" stroke-linejoin="round" stroke-width=".5" points="23.132 256.539 23.409 256.509 23.939 256.717 24.47 257.043 24.816 257.132 25.37 257.369 25.947 257.665 26.201 257.873 27.816 258.613 28.347 258.999 28.601 259.088 28.901 259.117 29.247 259.295 29.777 259.651 30.008 259.917 30.147 260.184 30.401 260.362 30.608 260.629 31.231 260.747 31.9 260.777 32.431 260.955 33.493 261.458 33.746 261.666 34.07 261.725 35.269 262.288 35.546 262.436 36.285 262.97 36.492 263.177 37.369 263.414 37.669 263.562 37.854 263.77 38.108 263.948 38.385 264.066 38.5 264.363 38.777 264.481 38.985 264.659 40.162 264.866 40.692 265.044 41.315 265.34 42.261 265.666 42.492 265.815 42.815 265.904 43.531 266.467 43.784 266.585 44.107 266.585 44.638 266.881 45.238 267 45.561 266.911 46.207 266.022 46.484 265.518 46.761 265.311 46.9 265.015 47.107 264.748 47.453 264.214 47.523 263.948 48.307 262.881 48.653 261.962 48.884 261.755 49.184 261.251 49.299 260.955 49.692 260.362 49.83 259.828 49.969 259.532 50.176 259.265 50.407 259.088 50.523 258.821 51.146 258.199 51.192 257.873 51.584 257.369 52.345 255.709 52.553 255.531 53.269 254.524 53.707 253.753 54.238 252.686 54.815 252.064 55.276 251.175 55.484 250.938 55.945 250.167 56.153 249.901 56.753 248.715 57.168 248.152 57.284 247.826 57.491 247.648 57.561 247.352 57.745 247.144 58.414 246.048 58.668 245.811 59.43 244.803 59.822 243.973 62.06 240.654 62.153 240.387 62.06 239.083 61.922 238.757 61.876 238.49 61.945 238.135 61.876 237.838 61.83 237.186 61.414 235.615 61.391 235.289 61.068 233.807 60.607 233.007 59.891 231.91 59.476 231.436 59.36 231.199 58.737 230.458 58.068 229.51 57.768 229.332 57.284 228.561 56.291 227.465 54.722 226.427 53.384 225.716 53.13 225.538 52.945 225.301 52.438 224.945 51.838 224.382 51.538 224.234 50.73 223.641 50.13 223.404 49.599 223.078 48.884 222.485 48.007 222.011 47.292 221.566 46.553 220.973 46.23 220.766 45.4 220.41 44.038 219.551 43.554 219.106 42.792 218.484 42.584 218.246 42.308 217.743 41.315 216.468 41.246 216.172 41.061 215.994 40.761 215.431 40 214.452 39.677 213.86 39.492 213.593 39.008 213.119 38.754 213 37.785 213.593 37.069 214.215 37 214.482 36.077 215.223 35.593 215.49 35.016 215.46 34.37 215.52 33.77 215.49 32.177 215.638 31.277 215.846 30.954 215.846 30.701 215.934 30.377 215.994 30.077 215.934 29.178 215.994 28.347 216.112 27.793 216.29 27.17 216.29 26.547 216.498 25.901 216.646 25.601 216.676 25.232 217.209 25.047 218.039 25.07 218.335 24.978 220.292 24.862 221.596 24.885 222.218 24.839 222.544 25.001 223.226 24.955 223.493 25.024 223.849 25.139 224.115 25.024 225.064 25.139 225.894 25.232 227.109 25.047 228.087 25.093 228.413 24.978 229.658 24.839 230.31 24.932 230.577 25.093 230.814 24.978 229.954 25.024 229.065 25.232 227.85 25.185 226.872 25.278 226.309 25.185 225.716 25.232 224.738 25.162 224.175 24.655 223.849 24.378 223.76 23.455 223.671 23.155 223.789 22.532 223.967 22.209 223.997 20.316 224.352 18.724 224.352 18.563 224.115 18.424 223.463 18.493 222.781 18.724 221.803 18.701 221.537 19.07 220.262 19.117 219.106 19.186 218.454 19.416 217.92 19.347 217.505 19.486 216.853 19.67 216.676 20.201 216.438 20.524 216.438 20.824 216.32 21.424 216.29 21.724 216.379 22.37 216.409 22.67 216.498 24.585 216.853 24.839 216.942 25.047 217.179 24.955 217.861 24.955 221.507 24.885 222.1 24.909 222.455 25.047 223.108 24.932 223.7 24.655 223.671 24.355 223.552 24.032 223.463 23.709 223.522 23.062 223.73 22.139 223.849 20.616 224.293 19.809 224.293 19.486 224.382 18.909 224.352 18.609 224.175 18.493 223.019 18.632 222.1 18.632 221.744 18.77 221.092 18.724 220.796 18.978 220.203 19.07 218.958 19.186 218.395 19.209 217.98 19.324 217.654 19.278 217.357 19.74 216.438 19.97 216.261 20.224 216.349 20.478 216.231 20.778 216.409 21.055 216.261 22.255 216.32 23.824 216.735 24.17 216.705 24.447 216.824 24.724 216.824 24.978 217.002 25.024 217.298 25.001 219.817 24.932 220.44 25.001 220.707 24.909 222.248 25.07 223.226 25.001 223.522 24.862 223.76 24.285 223.582 23.685 223.641 23.409 223.7 22.509 224.056 21.586 224.086 20.409 224.352 19.209 224.471 18.632 224.352 18.378 224.175 18.54 223.108 18.517 222.781 18.77 221.803 18.84 220.944 18.978 220.677 19.047 220.025 19.186 219.729 19.14 219.402 19.186 218.81 19.463 217.891 19.44 217.298 19.486 216.972 19.74 216.794 19.97 216.527 20.801 216.349 21.078 216.379 21.424 216.29 21.747 216.32 22.024 216.29 22.67 216.349 23.755 216.676 24.309 216.735 24.562 216.853 24.909 216.853 25.093 217.179 25.047 217.476 25.116 217.743 25.001 218.395 25.047 220.025 25.001 220.381 24.932 221.329 24.932 222.485 24.955 223.108 24.955 223.434 24.862 223.73 23.985 223.582 22.462 223.937 21.909 223.997 20.478 224.323 18.793 224.441 18.517 224.323 18.47 222.811 18.609 221.952 18.793 221.388 18.863 220.825 19.001 220.558 19.07 220.262 19.047 219.906 19.093 219.64 19.117 219.047 19.255 218.484 19.37 217.357 19.532 217.12 19.555 216.824 19.74 216.616 20.016 216.409 20.316 216.409 20.916 216.468 21.193 216.349 21.747 216.349 23.824 216.735 24.47 216.913 24.747 216.942 25.07 217.12 24.909 217.98 25.047 219.58 24.955 219.847 25.001 220.114 25.001 220.766 24.862 222.04 24.978 223.019 24.978 223.641 24.009 223.611 23.432 223.671 23.178 223.819 22.555 223.908 22.301 224.026 21.032 224.263 20.755 224.263 20.201 224.412 18.955 224.352 18.655 224.293 18.355 224.441 18.055 224.649 17.917 224.886 17.847 225.153 17.87 225.419 18.147 226.309 18.263 226.575 18.863 228.294 19.047 228.561 19.093 228.828 19.786 229.865 20.432 231.229 20.916 231.644 21.032 231.91 21.493 232.651 21.863 233.155 22.186 233.689 22.393 234.252 22.578 234.519 22.739 235.2 22.832 235.437 22.947 236.119 23.316 236.949 23.455 237.631 23.478 237.957 23.362 238.253 23.362 239.439 23.27 240.031 23.339 240.594 23.709 241.365 24.539 242.254 25.808 243.203 26.385 243.469 26.593 243.647 26.616 243.973 26.501 244.329 26.501 244.655 26.339 244.951 25.924 246.67 25.832 246.937 25.647 247.233 25.508 247.826 25.278 248.389 24.955 249.515 24.562 250.404 24.262 251.264 24.124 251.827 23.755 252.597 23.732 252.923"><title>2020-09-17 10.4km</title></polyline><polyline fill="none" stroke="#ff0d00" stroke-linecap="round" stroke-linejoin="round" stroke-width=".5" points="74.074 241.473 74.392 241.54 74.617 241.621 74.957 241.814 75.373 242.029 75.627 242.14 75.818 242.311 75.847 242.392 76.02 242.429 76.216 242.541 76.384 242.578 76.643 242.719 76.794 242.778 76.869 242.778 77.094 242.874 77.221 242.993 77.284 243.015 77.319 243.082 77.585 243.23 77.619 243.29 77.752 243.386 77.96 243.482 78.405 243.586 78.48 243.586 78.682 243.683 78.757 243.683 78.907 243.764 79.167 243.816 79.236 243.861 79.311 243.868 79.513 243.979 79.583 243.994 79.825 243.683 79.877 243.549 80.027 243.364 80.299 242.904 80.327 242.815 80.518 242.563 80.564 242.422 80.657 242.303 80.674 242.229 80.732 242.185 80.732 242.118 80.945 242.311 81.142 242.637 81.176 242.711 81.17 242.785 81.274 243.008 81.436 243.586 81.632 243.905 81.696 244.053 81.725 244.187 81.84 244.365 81.886 244.521 81.985 244.617 82.025 244.699 82.146 244.795 82.262 244.943 82.302 245.01 82.302 245.084 82.423 245.181 82.493 245.203 82.666 245.351 83.278 245.67 83.388 245.751 83.526 245.915 83.786 246.144 84.109 246.523 84.144 246.589 84.491 246.93 84.623 247.116 84.774 247.39 84.918 247.59 84.976 247.761 85.056 247.88 85.183 247.976 85.426 248.258 85.501 248.287 86.015 248.762 86.211 248.895 86.893 249.303 87.256 249.481 87.326 249.489 87.464 249.407 87.586 249.192 87.747 249.007 88.076 248.539 88.446 248.109 88.642 247.768 88.683 247.531 88.66 247.375 88.33 246.5 88.215 245.959 88.209 245.878 88.29 245.485 88.382 245.173 88.452 245.032 88.769 244.558 89.145 244.246 89.272 244.172 89.555 244.053 90.045 243.927 90.242 243.772 90.271 243.69 90.057 243.453 89.797 243.275 89.722 243.253 89.456 243.038 89.462 242.963 89.589 242.771 89.964 242.585 90.19 242.518 90.507 242.459 92.546 242.429 92.909 242.444 93.608 242.407 93.931 242.363 94.364 242.251 94.722 242.103 94.878 242.066 95.167 241.962 95.317 241.814 95.744 241.614 97.049 240.872 97.28 240.783 97.916 240.442 98.141 240.361 98.718 240.049 98.926 239.975 99.677 239.552 100.237 239.278 100.606 239.122 101.034 238.892 101.086 238.84 101.571 238.61 101.767 238.477 101.986 238.366 102.806 237.973 103.043 237.876 103.511 237.75 103.961 237.654 104.296 237.609 104.614 237.602 104.689 237.58 105.018 237.587 105.428 237.602 105.826 237.646 106.848 237.832 107.882 237.98 108.118 238.032 108.494 238.062 110.532 238.388 110.636 238.373 111.883 238.573 112.293 238.662 113.968 238.937 114.632 239.026 114.938 239.048 115.481 239.152 115.723 239.174 117.022 239.389 118.154 239.612 118.321 239.626 118.887 239.73 119.771 239.804 120.169 239.812 120.55 239.782 120.937 239.745 121.255 239.678 121.722 239.552 122.323 239.307 122.866 239.011 123.316 238.677 123.784 238.247 124.148 237.824 124.933 236.831 125.516 236.178 125.724 236.037 126.48 235.755 126.648 235.725 126.804 235.748 126.954 235.785 127 235.852 126.988 235.933 126.902 235.948 126.769 235.881 126.544 235.814 126.469 235.829 126.388 235.822 126.249 235.763 125.995 235.592 125.245 235.236 125.112 235.147 125.089 235.08 125.048 235.221 124.783 235.807 124.298 236.749 123.963 237.313 123.53 237.884 123.079 238.343 122.652 238.685 122.109 239.011 121.78 239.189 121.416 239.337 120.972 239.471 120.677 239.53 120.21 239.589 119.251 239.619 118.708 239.574 117.796 239.411 117.467 239.389 117.167 239.315 116.699 239.256 116.555 239.211 116.387 239.211 114.176 238.87 113.887 238.796 113.263 238.736 112.669 238.625 112.218 238.581 112.004 238.521 111.698 238.484 111.467 238.425 111.237 238.41 110.515 238.291 109.88 238.21 109.741 238.173 109.597 238.158 109.146 238.091 108.759 237.995 108.049 237.876 107.189 237.772 105.861 237.565 104.758 237.468 104.18 237.505 103.701 237.572 103.395 237.661 103.107 237.787 103.026 237.795 102.668 237.921 101.819 238.329 101.68 238.425 100.785 238.863 100.45 239.063 99.469 239.545 98.857 239.871 98.175 240.197 97.633 240.516 96.432 241.102 95.906 241.369 95.109 241.807 94.607 242.029 94.145 242.17 93.833 242.207 93.036 242.2 92.361 242.214 91.443 242.192 90.478 242.229 90.022 242.326 89.722 242.437 89.185 242.763 89.116 242.756 89.029 242.748 88.867 242.682 88.729 242.585 88.521 242.481 88.192 242.222 87.926 242.059 87.747 241.918 87.493 241.74 86.188 240.924 85.559 240.494 85.42 240.42 85.259 240.375 85.183 240.398 85.097 240.383 85.068 240.309 84.924 240.123 84.791 240.064 84.687 239.945 84.462 239.886 84.115 239.604 84.029 239.463 83.954 239.441 83.786 239.315 83.203 238.996 83.001 239.078 82.943 239.033 82.926 238.952 83.036 238.759 83.134 238.64 83.411 238.18 83.619 237.787 83.694 237.669 83.757 237.617 83.815 237.483 83.948 237.32 83.902 237.261 83.769 237.194 83.728 237.135 83.653 236.356 83.486 235.763 83.336 235.436 83.295 235.369 83.168 235.273 83.093 235.162 83.001 234.954 82.706 234.517 82.631 234.472 82.464 234.302 82.406 234.153 82.348 234.094 82.227 234.027 82.077 233.983 81.552 233.656 81.413 233.597 81.292 233.501 81.165 233.449 81.055 233.36 81.026 233.285 80.905 233.211 80.801 233.1 80.657 233.063 80.108 232.67 79.842 232.529 79.663 232.381 79.08 231.973 79.034 231.913 78.959 231.876 78.884 231.758 78.815 231.72 78.064 230.571 77.931 230.511 77.717 230.578 77.677 230.638 77.435 230.801 77.279 230.964 77.129 231.053 76.909 231.105 76.736 231.097 76.216 231.194 75.847 231.186 75.691 231.209 75.546 231.268 75.333 231.283 75.171 231.335 74.726 231.424 74.42 231.394 74.368 231.342 73.895 231.313 73.82 231.283 73.595 231.305 73.525 231.335 73.289 231.372 73.173 231.468 73.092 231.609 73.081 231.765 73.052 231.906 73 232.047"><title>2020-09-20 20.2km</title></polyline></svg>